<?xml version="1.0" standalone="no"?>
<!DOCTYPE svg PUBLIC "-//W3C//DTD SVG 20010904//EN"
 "http://www.w3.org/TR/2001/REC-SVG-20010904/DTD/svg10.dtd">
<svg version="1.0" xmlns="http://www.w3.org/2000/svg"
 width="400.000000pt" height="400.000000pt" viewBox="0 0 400.000000 400.000000"
 preserveAspectRatio="xMidYMid meet">
<metadata>
Created by potrace 1.11, written by Peter Selinger 2001-2013
</metadata>
<g transform="translate(0.000000,400.000000) scale(0.100000,-0.100000)"
fill="#000000" stroke="none">
<path d="M0 3756 c0 -186 3 -246 13 -249 10 -4 10 -6 0 -6 -18 -1 -18 -101 0
-101 7 0 18 5 24 11 8 8 11 4 10 -15 -2 -20 -7 -26 -24 -26 -21 0 -23 -4 -23
-60 0 -36 4 -60 11 -60 5 0 7 -4 4 -10 -3 -5 -4 -10 -1 -10 2 0 13 -3 23 -6
15 -5 15 -4 3 5 -8 6 -10 11 -5 11 6 0 24 -12 40 -26 21 -17 23 -22 8 -15 -25
13 -53 14 -53 4 1 -8 72 -44 125 -64 37 -13 145 -20 145 -9 0 14 -19 22 -55
23 -19 0 -32 4 -29 9 3 4 -2 5 -10 2 -10 -4 -16 -1 -16 7 0 12 -2 12 -9 1 -7
-12 -13 -11 -37 2 l-29 15 45 1 c25 0 76 -12 115 -26 39 -14 77 -28 86 -31 22
-6 34 14 18 33 -6 8 -9 17 -5 21 3 3 6 1 6 -5 0 -17 25 -15 41 4 32 39 84 54
170 49 87 -6 120 -15 53 -15 -65 0 -149 -32 -199 -74 -68 -59 -58 -105 14 -67
22 11 42 17 47 13 4 -4 4 -2 1 4 -7 12 23 44 45 48 7 1 23 8 36 14 12 7 28 12
35 11 6 -1 28 -1 49 0 31 1 35 4 31 20 -4 16 3 22 34 30 21 6 45 15 53 20 12
9 12 11 -3 16 -14 6 -11 11 17 30 19 13 44 26 56 30 25 8 40 42 40 90 0 19 10
55 22 80 17 34 30 47 57 56 20 7 61 23 91 37 30 14 60 24 67 23 6 -1 14 3 18
9 4 7 12 7 26 0 10 -6 19 -7 18 -3 -4 14 27 73 34 66 4 -3 7 7 7 22 0 18 4 25
9 19 13 -12 31 -94 22 -94 -10 0 -31 -46 -31 -66 0 -9 5 -12 11 -8 6 3 15 1
19 -7 5 -7 24 -13 44 -14 20 0 41 -8 48 -17 17 -22 34 -24 91 -8 56 15 72 41
62 101 -4 21 -2 40 3 43 6 4 0 26 -14 56 -28 58 -30 84 -9 124 18 34 12 48 -7
17 -7 -12 -19 -21 -26 -21 -7 0 -22 -20 -33 -45 -11 -24 -24 -47 -29 -50 -17
-11 -11 27 7 48 19 20 31 153 19 202 l-7 26 -179 -1 c-99 -1 -178 -5 -175 -9
2 -5 -4 -16 -15 -26 -19 -17 -19 -20 -4 -36 8 -9 26 -20 39 -23 27 -7 64 -56
41 -56 -7 0 -17 -7 -20 -16 -8 -22 -8 -26 4 -19 6 4 9 1 8 -5 -2 -7 5 -17 14
-23 14 -9 20 -8 32 8 12 17 15 17 29 3 11 -11 13 -18 5 -26 -7 -7 -7 -20 -1
-39 11 -35 5 -75 -10 -70 -7 2 -24 29 -39 60 -24 50 -32 57 -70 67 -24 7 -52
20 -63 30 -11 10 -51 35 -90 55 -38 21 -72 41 -75 45 -7 10 -47 30 -61 30 -9
0 -9 -3 1 -14 6 -8 17 -13 25 -10 8 4 19 -11 31 -41 9 -26 24 -54 32 -62 12
-12 12 -17 3 -23 -10 -5 -9 -9 3 -13 11 -4 16 -19 16 -46 0 -33 -5 -44 -27
-58 -16 -9 -36 -25 -46 -35 -18 -18 -17 -18 24 -12 31 5 40 4 35 -4 -4 -7 -3
-12 2 -12 5 0 14 -11 20 -25 14 -30 6 -31 -28 -5 -31 24 -39 24 -61 4 -17 -15
-21 -15 -55 5 -39 23 -55 21 -34 -4 11 -13 8 -14 -21 -11 -19 3 -44 2 -57 -1
-21 -5 -21 -6 -6 -18 15 -10 10 -13 -31 -18 -63 -9 -87 -9 -82 1 3 4 -5 7 -16
8 -12 0 -34 3 -49 7 -21 4 -31 1 -42 -15 -12 -17 -30 -23 -88 -28 -40 -4 -81
-10 -92 -15 -16 -7 -17 -6 -7 13 9 17 9 22 0 22 -6 0 -9 9 -6 20 3 11 1 20 -4
20 -5 0 -9 5 -9 11 0 6 14 9 33 7 25 -2 31 1 29 14 -1 9 10 26 25 37 16 11 33
25 40 31 7 5 17 10 22 10 19 0 1 26 -19 28 -43 4 -50 6 -50 13 0 12 72 3 80
-11 5 -8 15 -4 35 14 15 14 34 26 41 26 8 0 14 4 14 9 0 5 10 11 23 13 12 2
22 10 22 18 1 24 14 40 30 34 8 -4 30 12 54 38 38 40 53 67 31 53 -5 -3 -28
-1 -51 5 -39 11 -41 13 -35 41 l6 29 -275 0 -275 0 0 -244z m1214 85 c9 -12 8
-12 -11 -1 -13 8 -19 20 -15 29 5 13 6 13 10 0 3 -7 10 -20 16 -28z m-924 -24
c19 -16 20 -18 5 -12 -11 4 -45 12 -75 17 -79 13 -83 16 -15 15 44 0 67 -6 85
-20z m413 -287 c-3 -11 -7 -20 -9 -20 -2 0 -4 9 -4 20 0 11 4 20 9 20 5 0 7
-9 4 -20z m-77 -56 c68 -44 49 -72 -24 -35 -42 21 -141 42 -157 34 -7 -4 -7
-2 0 5 13 13 40 19 95 21 34 1 57 -6 86 -25z m143 -70 c12 -12 -48 -2 -65 11
-17 13 -15 13 21 4 22 -6 42 -13 44 -15z m48 -10 c-3 -3 -12 -4 -19 -1 -8 3
-5 6 6 6 11 1 17 -2 13 -5z m-98 -104 c51 -14 54 -24 4 -16 -57 11 -73 16 -73
28 0 5 6 8 14 5 8 -3 33 -11 55 -17z"/>
<path d="M615 3450 c3 -5 13 -10 21 -10 8 0 12 5 9 10 -3 6 -13 10 -21 10 -8
0 -12 -4 -9 -10z"/>
<path d="M1490 3994 c0 -3 8 -19 17 -35 27 -45 41 -36 27 19 -6 19 -44 34 -44
16z"/>
<path d="M1626 3983 c2 -10 5 -62 8 -115 3 -77 8 -103 25 -126 11 -17 16 -33
11 -38 -16 -17 -15 -72 2 -91 9 -10 24 -36 33 -59 9 -23 27 -47 41 -54 13 -8
24 -23 24 -34 1 -17 5 -14 20 14 11 19 19 43 20 53 0 14 4 16 18 8 45 -24 101
20 103 81 0 21 2 20 13 -7 27 -63 41 -121 36 -150 -5 -28 -6 -28 -12 -7 -8 30
-35 19 -43 -20 -9 -38 -5 -40 28 -23 l28 14 -18 -32 c-10 -17 -28 -40 -40 -50
-13 -10 -23 -25 -23 -32 0 -8 -9 -19 -19 -25 -25 -13 -41 -13 -21 0 8 5 10 10
4 10 -14 0 -127 -114 -134 -136 -3 -8 -3 -38 0 -67 4 -47 7 -52 30 -53 13 -1
29 4 35 12 15 19 70 24 100 8 15 -8 34 -14 41 -14 28 0 10 -33 -21 -38 -11 -2
-25 -10 -31 -18 -10 -12 -13 -12 -17 -2 -4 8 -6 7 -6 -4 -1 -18 -6 -20 -45
-22 -14 -1 -22 -12 -29 -35 -6 -23 -11 -30 -16 -22 -20 32 -22 -178 -2 -217 4
-9 8 -40 9 -68 0 -34 10 -73 31 -119 34 -74 42 -115 16 -81 -21 28 -28 15 -10
-20 21 -44 7 -89 -28 -88 -22 1 -26 -3 -25 -30 0 -17 9 -46 19 -64 11 -18 19
-35 19 -38 0 -10 -25 -3 -43 13 -20 18 -20 18 -2 -11 l19 -29 -33 18 -33 17
27 -37 c16 -20 33 -34 39 -32 23 9 48 -22 62 -78 8 -32 13 -59 10 -62 -7 -8
-73 47 -108 91 -17 21 -47 68 -68 105 -46 82 -93 160 -138 229 -33 49 -34 55
-28 112 4 33 2 115 -4 182 -9 104 -9 131 4 173 21 67 21 68 -14 50 l-31 -16 7
28 c5 27 5 27 -17 -7 -13 -19 -26 -37 -29 -40 -6 -5 4 -272 11 -300 3 -10 -2
-14 -13 -12 -26 4 -22 -19 7 -50 14 -15 25 -39 25 -55 0 -22 2 -25 10 -13 7
12 11 8 16 -17 4 -18 9 -33 13 -33 4 0 6 -16 6 -36 -1 -26 5 -44 22 -63 24
-25 24 -25 20 -3 -3 12 -3 22 0 22 12 0 33 -32 81 -124 38 -70 68 -112 104
-145 47 -42 98 -128 98 -165 0 -17 97 -115 156 -156 23 -17 59 -68 52 -75 -6
-6 -78 65 -78 76 0 5 -20 20 -44 34 -25 14 -61 45 -81 68 -52 61 -57 67 -48
67 4 0 -1 8 -13 18 -11 9 -34 35 -50 57 -54 75 -106 135 -113 130 -5 -2 -19 8
-32 23 -13 14 -16 20 -6 13 28 -22 19 3 -12 33 -16 15 -49 69 -75 119 -45 91
-116 270 -116 295 0 6 -7 12 -16 12 -8 0 -22 7 -30 15 -20 19 -54 -1 -54 -32
0 -12 -4 -24 -9 -28 -10 -5 -19 -33 -41 -117 -7 -26 -16 -46 -20 -43 -4 2 -12
-20 -19 -49 -12 -55 -30 -77 -90 -110 -37 -20 -71 -51 -71 -64 0 -5 -9 -28
-21 -51 -11 -24 -18 -49 -15 -57 9 -25 -3 -15 -18 14 -9 17 -11 34 -6 42 5 8
6 18 3 23 -3 5 5 19 17 32 15 16 20 30 15 44 -3 12 -2 21 3 21 5 0 15 13 22
30 10 24 16 28 39 24 18 -3 34 2 55 21 16 14 27 25 24 25 -4 0 0 21 8 46 7 25
13 49 12 52 -1 4 6 24 16 44 10 21 16 44 13 52 -4 10 7 22 30 36 21 12 32 24
26 28 -15 10 -33 48 -32 69 0 10 6 2 13 -17 11 -31 12 -26 8 52 -3 66 -1 96
11 120 9 18 17 44 19 58 2 14 7 31 11 38 5 6 4 12 -1 12 -15 0 -47 -43 -59
-80 -25 -75 -39 -107 -56 -131 l-18 -24 6 35 c3 19 10 37 15 38 6 2 10 25 10
50 1 51 20 97 42 97 8 0 18 22 25 55 6 30 12 57 12 60 1 3 5 -1 10 -9 9 -14
11 -9 27 95 2 17 13 39 23 48 11 10 22 29 26 44 3 14 17 39 31 55 13 16 24 35
24 42 0 32 -23 121 -34 127 -19 13 -61 9 -85 -8 -18 -13 -25 -14 -31 -4 -13
21 -66 4 -126 -42 -31 -24 -70 -52 -85 -63 -32 -22 -91 -105 -104 -144 -4 -14
-38 -57 -75 -96 -37 -39 -76 -87 -85 -106 -10 -19 -33 -56 -51 -84 -19 -27
-44 -80 -57 -117 -13 -38 -27 -71 -32 -75 -4 -5 -5 34 -1 86 6 97 23 141 52
141 8 0 17 8 21 18 3 9 12 24 18 32 22 26 28 60 12 60 -8 0 -20 -7 -27 -15 -7
-8 -24 -15 -39 -15 -30 -1 -66 -24 -57 -38 3 -6 -17 -24 -44 -42 -57 -36 -68
-52 -68 -94 0 -17 -7 -35 -18 -43 -15 -11 -16 -17 -6 -33 17 -28 14 -39 -4
-15 -9 12 -18 16 -22 10 -4 -6 -14 -10 -22 -10 -8 0 -25 -15 -37 -33 -23 -33
-30 -62 -15 -62 5 0 7 -13 4 -30 -5 -33 -22 -41 -22 -11 0 11 -4 22 -9 25 -9
6 -5 -22 6 -54 3 -8 8 -24 9 -35 4 -20 4 -20 -11 -1 -8 11 -15 25 -15 32 0 6
-7 17 -15 24 -13 10 -15 9 -15 -8 0 -12 4 -23 9 -26 5 -3 5 -21 1 -40 -4 -19
-5 -37 -3 -40 3 -3 -5 -4 -17 -3 -18 1 -21 6 -16 29 3 15 2 28 -3 28 -5 0 -7
19 -4 43 3 31 2 38 -6 27 -9 -13 -11 -13 -11 3 0 10 -7 20 -15 23 -8 4 -15 12
-15 20 0 15 -56 48 -69 39 -5 -2 -8 11 -7 31 1 24 -6 47 -21 67 -13 17 -23 42
-23 55 0 20 -2 22 -15 9 -7 -8 -17 -26 -21 -41 -3 -14 -11 -29 -17 -33 -6 -4
-8 2 -4 18 4 13 7 47 7 74 0 34 3 45 9 35 6 -8 7 -18 5 -22 -3 -4 0 -8 5 -8 6
0 11 9 11 20 0 18 3 19 21 9 21 -11 22 -10 16 20 -6 29 -5 31 14 21 11 -6 23
-18 26 -26 3 -8 9 -14 15 -14 5 0 6 5 3 10 -4 6 7 13 24 16 17 4 37 17 46 30
8 13 25 32 37 44 18 17 19 20 5 20 -9 0 -17 5 -17 10 0 6 7 10 15 10 8 0 15 5
15 10 0 6 -5 10 -11 10 -5 0 -7 5 -4 10 8 12 -62 43 -80 36 -7 -2 -18 1 -24 7
-6 6 -13 8 -16 5 -3 -3 6 -16 20 -29 45 -44 21 -47 -39 -5 -16 11 -26 15 -22
8 5 -8 -3 -12 -26 -11 -30 0 -31 1 -11 9 26 11 27 11 12 42 -5 13 -28 31 -50
40 l-39 17 0 -134 c0 -78 4 -136 10 -140 6 -3 10 -18 9 -33 l-1 -27 -7 25 c-4
14 -9 -117 -10 -292 l-2 -316 23 -7 c13 -4 32 -15 43 -25 11 -9 36 -20 55 -23
20 -3 53 -15 74 -28 45 -26 83 -31 91 -11 3 8 13 12 24 9 28 -7 40 5 45 43 2
21 12 40 25 48 12 8 21 20 21 26 0 19 139 18 183 -1 34 -15 50 -33 27 -33 -5
0 2 -12 15 -26 15 -17 25 -39 25 -58 0 -24 3 -27 10 -16 8 12 10 10 10 -11 0
-14 11 -36 25 -49 14 -13 25 -30 25 -39 0 -8 14 -29 31 -47 17 -17 31 -38 32
-45 2 -8 6 -20 10 -26 9 -15 -2 -17 -22 -4 -8 5 -10 14 -6 22 5 8 5 11 1 8 -3
-3 -28 15 -54 41 -75 76 -151 114 -139 71 5 -19 4 -19 -27 0 -17 10 -38 19
-46 19 -9 0 -21 14 -28 32 -6 17 -14 29 -18 26 -11 -12 8 -50 44 -90 20 -23
37 -47 37 -54 0 -8 3 -13 6 -11 4 1 17 -7 30 -18 19 -17 22 -18 16 -2 -8 23
13 22 44 -1 13 -10 45 -27 70 -37 25 -11 50 -29 56 -42 6 -13 7 -23 2 -23 -5
0 -9 4 -9 8 0 5 -19 9 -42 9 -24 1 -62 4 -85 7 -28 4 -43 2 -43 -5 0 -6 -9 -9
-20 -6 -11 3 -23 1 -26 -4 -3 -5 -10 -6 -16 -3 -8 5 -9 1 -5 -10 4 -9 3 -15
-1 -12 -5 3 -20 -6 -34 -19 -19 -17 -28 -21 -32 -12 -5 9 -8 8 -12 -2 -5 -11
-10 -8 -19 10 -8 14 -23 24 -39 25 -25 1 -28 -2 -30 -28 -1 -7 -5 -16 -10 -19
-5 -4 -9 -26 -10 -49 l-1 -42 -12 28 c-7 16 -13 22 -13 14 -1 -8 -6 -2 -12 15
-8 21 -8 30 1 33 6 2 11 8 11 14 0 6 -7 5 -16 -3 -11 -9 -14 -22 -10 -42 l6
-30 -20 25 c-16 21 -18 31 -10 59 5 18 7 35 5 38 -3 2 -5 0 -5 -5 0 -10 -22
26 -39 64 -25 53 -74 30 -85 -40 l-7 -42 -17 35 c-17 34 -23 36 -79 24 l-23
-5 0 -745 0 -745 25 -6 c14 -3 25 -10 25 -15 0 -5 6 -9 13 -9 14 -1 52 -78 43
-87 -3 -4 -6 -1 -6 5 0 7 -8 12 -19 12 -10 0 -26 11 -35 25 -9 14 -23 25 -31
25 -13 0 -15 -30 -15 -195 l0 -195 955 0 955 0 -16 26 c-21 32 -10 43 39 37
24 -4 47 -15 65 -34 l27 -29 987 0 988 0 0 40 c0 37 -2 40 -27 40 -14 0 -47
13 -72 29 -49 31 -111 55 -176 67 -22 4 -56 14 -75 23 -56 26 -240 142 -240
152 0 12 92 12 122 0 14 -5 46 -5 78 1 30 5 75 11 100 12 105 9 215 28 249 44
l36 17 0 345 c0 320 -1 345 -17 348 -15 3 -17 -2 -11 -30 l6 -33 -50 47 c-32
30 -66 51 -94 58 -57 15 -189 73 -189 83 0 4 10 7 23 7 49 0 53 16 15 58 -20
22 -39 38 -42 34 -3 -3 -6 0 -6 6 0 15 22 20 48 11 12 -5 22 -5 22 -1 0 4 24
7 54 7 46 -1 59 -5 90 -33 20 -18 43 -32 50 -32 7 0 30 -16 50 -35 21 -19 42
-35 47 -35 15 0 12 300 -3 304 -28 8 -117 25 -183 37 -176 29 -178 52 -5 60
163 8 147 5 155 28 3 11 15 23 26 26 17 6 19 16 19 110 l0 104 -35 27 c-19 14
-32 31 -29 36 4 7 9 6 13 0 4 -7 12 -7 20 -2 10 6 3 11 -25 19 -21 6 -43 11
-47 11 -15 0 -67 44 -67 57 0 7 9 13 20 13 11 0 20 5 20 11 0 7 9 9 23 6 21
-5 21 -5 2 8 -31 22 -61 47 -47 40 20 -10 13 8 -18 44 -15 18 -26 40 -23 47 3
8 9 12 13 9 10 -6 19 16 13 33 -3 6 -11 12 -19 12 -9 0 -12 5 -9 10 4 6 14 9
23 6 10 -3 28 1 42 9 25 14 25 14 -14 15 -22 0 -47 6 -55 14 -29 24 -75 33
-144 27 -37 -4 -73 -4 -80 0 -6 4 -22 10 -34 13 -40 13 -16 -20 28 -37 42 -17
49 -31 22 -42 -17 -7 -16 -8 2 -16 17 -8 16 -9 -5 -4 -14 3 -59 9 -101 12 -64
5 -77 3 -82 -11 -4 -11 1 -18 18 -22 22 -5 43 -33 27 -35 -4 0 -18 -2 -32 -4
-34 -5 -110 15 -110 29 0 14 -47 43 -81 50 -13 2 -33 8 -43 12 -13 5 -17 4
-13 -3 8 -12 -25 -19 -133 -29 -64 -5 -78 -4 -90 11 -22 26 5 65 57 83 35 11
45 20 51 45 5 18 9 33 8 33 -3 3 -125 -14 -146 -21 -22 -6 -23 -6 -10 8 9 9
53 21 108 28 90 13 95 12 135 -9 40 -21 126 -42 171 -42 12 0 27 9 33 20 11
16 9 23 -9 40 l-22 20 27 0 c50 0 36 18 -31 38 -37 11 -78 23 -92 26 -14 3
-34 13 -45 24 -40 36 -215 80 -215 53 0 -4 -16 -6 -37 -4 -32 3 -35 2 -23 -12
7 -8 18 -15 24 -15 7 0 31 -9 53 -20 23 -11 50 -17 60 -14 13 4 15 3 5 -4 -11
-7 -11 -10 2 -15 9 -4 16 -12 16 -18 0 -9 -19 -10 -68 -6 -73 6 -109 -4 -82
-24 11 -8 4 -9 -30 -4 -59 8 -90 38 -83 83 3 17 11 32 19 32 24 0 24 19 -1 46
-33 36 -32 57 8 101 32 34 36 36 108 38 41 1 59 0 40 -2 -19 -2 -46 -13 -59
-24 -14 -10 -31 -19 -38 -19 -16 0 -19 -47 -5 -69 7 -11 17 -12 53 -3 29 7 56
8 76 3 17 -5 34 -6 38 -3 5 4 3 0 -3 -9 -11 -13 -2 -18 62 -37 44 -13 102 -22
141 -22 51 0 75 -5 102 -22 20 -12 50 -23 67 -23 16 0 46 -6 65 -12 19 -6 61
-16 93 -23 31 -7 57 -17 57 -22 0 -4 6 -8 14 -8 8 0 21 -9 28 -19 13 -19 127
-64 151 -60 7 1 30 -6 51 -15 28 -13 52 -16 83 -11 l43 6 0 203 c0 147 -3 205
-12 214 -9 9 -10 15 -2 20 8 5 12 157 13 514 l2 507 -23 12 c-55 30 -59 69 -7
69 26 0 29 3 29 35 l0 35 -1189 0 c-1127 0 -1189 -1 -1185 -17z m1947 -385
c21 -11 21 -12 -13 -19 -40 -8 -45 -6 -37 16 8 18 21 19 50 3z m73 -35 c3 -10
10 -26 15 -35 11 -22 -4 -24 -21 -3 -7 8 -9 15 -5 15 5 0 0 9 -10 20 -17 18
-17 20 -1 20 9 0 19 -8 22 -17z m-1296 -107 c0 -2 -8 -10 -17 -17 -16 -13 -17
-12 -4 4 13 16 21 21 21 13z m-80 -105 c0 -5 -11 -11 -25 -13 -14 -3 -25 -3
-25 -1 0 3 34 19 48 22 1 1 2 -3 2 -8z m-59 -40 c7 11 9 9 9 -6 -1 -24 -25
-59 -37 -52 -4 3 -17 -1 -28 -10 -20 -14 -20 -15 -1 -28 10 -8 23 -16 28 -17
6 -2 12 -26 15 -52 6 -48 5 -49 -18 -43 -13 3 -60 3 -104 -1 -68 -6 -81 -5
-83 8 -1 8 -5 34 -8 58 -5 36 -3 47 15 63 11 11 21 24 21 30 0 6 4 7 10 4 5
-3 29 -9 52 -13 36 -6 45 -4 65 16 12 12 28 32 35 45 11 20 12 21 16 3 3 -15
6 -16 13 -5z m939 -120 c0 -21 -13 -43 -46 -78 -25 -26 -42 -41 -38 -34 10 20
-56 -27 -79 -56 -21 -26 -87 -49 -113 -39 -13 5 -15 15 -11 47 7 53 51 107
103 128 23 9 48 21 55 27 20 16 69 32 102 33 23 1 27 -3 27 -28z m-913 -43
c-3 -7 -5 -2 -5 12 0 14 2 19 5 13 2 -7 2 -19 0 -25z m-474 -48 c4 -30 3 -38
-3 -25 -8 19 -14 83 -6 74 2 -2 6 -24 9 -49z m2197 31 c0 -15 -5 -18 -22 -14
-49 10 -54 15 -33 23 35 15 55 11 55 -9z m-3920 -21 c13 -8 13 -10 -2 -10 -9
0 -20 5 -23 10 -8 13 5 13 25 0z m3910 -26 c0 -17 -22 -14 -28 4 -2 7 3 12 12
12 9 0 16 -7 16 -16z m-1472 -276 c5 15 38 16 48 1 3 -6 0 -15 -7 -20 -9 -6
-10 -9 -2 -9 6 0 15 5 18 10 10 16 39 11 58 -10 10 -12 23 -17 33 -13 12 4 15
2 12 -8 -8 -25 -85 -28 -131 -4 -78 39 -97 56 -97 84 l1 26 31 -35 c19 -20 33
-29 36 -22z m1330 -3 c-12 -14 -30 -25 -39 -25 -26 0 -14 24 19 37 41 17 44
15 20 -12z m-1581 -29 c0 -8 -6 -12 -14 -9 -7 3 -10 9 -7 14 8 14 21 11 21 -5z
m-2180 -21 c0 -8 -4 -15 -9 -15 -10 0 -11 14 -1 23 9 10 10 9 10 -8z m474 -27
c11 -11 19 -25 19 -29 0 -4 13 -17 30 -29 22 -16 28 -17 24 -6 -4 9 -1 16 6
16 8 0 11 -9 8 -25 -3 -14 -1 -25 3 -25 5 0 9 -10 9 -22 0 -21 0 -21 -14 -3
-16 23 -106 33 -106 12 -1 -6 -10 -1 -21 12 -22 27 -20 28 -43 -24 l-17 -40 5
40 c3 22 12 45 21 51 8 6 15 16 15 22 0 6 9 14 21 17 16 5 19 12 15 31 -8 30
1 31 25 2z m676 -10 c-3 -8 -6 -5 -6 6 -1 11 2 17 5 13 3 -3 4 -12 1 -19z
m2176 -43 c27 -14 55 -25 63 -25 18 0 18 -9 -2 -31 -17 -19 -30 -17 -84 16
-19 11 -61 30 -92 40 -32 11 -58 23 -58 28 0 18 124 -2 173 -28z m-835 -35
c41 -11 79 -20 85 -19 7 1 29 1 50 0 29 -1 40 -6 46 -23 11 -29 8 -32 -19 -18
-12 6 -47 12 -79 13 -39 1 -63 7 -75 20 -10 9 -25 17 -34 17 -14 1 -65 30 -51
30 2 0 37 -9 77 -20z m-2161 -62 c-3 -8 -6 -5 -6 6 -1 11 2 17 5 13 3 -3 4
-12 1 -19z m-146 -11 c-10 -9 -11 -8 -5 6 3 10 9 15 12 12 3 -3 0 -11 -7 -18z
m835 -3 c-6 -31 -16 -45 -16 -21 0 18 10 47 16 47 3 0 2 -12 0 -26z m-818 -49
c-3 -3 -9 2 -12 12 -6 14 -5 15 5 6 7 -7 10 -15 7 -18z m517 -16 c4 -10 2 -26
-3 -35 -9 -15 -10 -15 -16 4 -4 12 -5 26 -1 31 3 5 1 12 -5 16 -5 3 -10 -2
-10 -11 0 -10 -3 -15 -6 -11 -4 3 -4 13 -1 21 8 20 34 10 42 -15z m264 -23
c-9 -8 -10 -7 -5 7 3 10 7 24 7 30 1 7 3 4 6 -7 3 -10 -1 -23 -8 -30z m315
-11 l7 -40 -19 35 c-11 19 -17 41 -14 48 7 20 19 2 26 -43z m-667 -17 c-3 -8
-6 -5 -6 6 -1 11 2 17 5 13 3 -3 4 -12 1 -19z m-277 -33 c0 -3 -7 -5 -15 -5
-8 0 -15 4 -15 9 0 5 -3 17 -7 27 -5 14 -2 13 15 -4 12 -12 22 -24 22 -27z
m2477 39 c-3 -3 -12 -4 -19 -1 -8 3 -5 6 6 6 11 1 17 -2 13 -5z m-2147 -21 c0
-10 -4 -24 -9 -31 -6 -10 -10 -7 -13 12 -3 14 -3 28 0 31 11 11 22 4 22 -12z
m30 -19 c0 -8 -5 -12 -10 -9 -6 4 -8 11 -5 16 9 14 15 11 15 -7z m530 -56 c0
-5 -7 -3 -15 6 -8 8 -15 18 -15 22 0 3 7 1 15 -6 8 -7 15 -17 15 -22z m-556 6
c3 -8 2 -12 -4 -9 -6 3 -10 10 -10 16 0 14 7 11 14 -7z m-34 -67 c0 -5 -4 -5
-10 -2 -5 3 -10 14 -10 23 0 15 2 15 10 2 5 -8 10 -19 10 -23z m-485 -13 c0
-10 -8 -20 -19 -22 -15 -3 -18 0 -13 17 2 11 0 22 -7 25 -6 3 0 3 14 2 17 -2
25 -9 25 -22z m1695 8 c0 -5 18 -17 39 -27 36 -16 95 -82 103 -114 5 -22 -39
-32 -54 -13 -12 15 -11 16 5 3 10 -8 17 -9 17 -3 0 18 -21 25 -72 25 -26 -1
-48 3 -48 8 0 17 -20 9 -20 -8 -1 -14 -70 110 -70 124 0 12 19 -1 27 -19 l10
-22 24 26 c25 27 39 34 39 20z m-25 -162 c3 -5 1 -10 -5 -10 -6 0 -9 -4 -5 -9
3 -5 1 -12 -4 -15 -11 -7 -23 22 -15 35 7 12 21 11 29 -1z m55 -87 c0 -26 -28
-12 -32 15 -7 46 4 61 18 27 7 -16 13 -36 14 -42z m-1180 3 c0 -16 -24 12 -26
31 -2 16 -1 16 12 -1 8 -11 14 -24 14 -30z m245 -36 c13 -27 14 -32 2 -20 -8
8 -18 26 -22 40 -9 32 -2 25 20 -20z m223 -15 c-3 -3 -9 2 -12 12 -6 14 -5 15
5 6 7 -7 10 -15 7 -18z m915 15 c7 0 4 -5 -6 -11 -18 -11 -37 -5 -37 13 0 5 7
7 16 4 9 -3 21 -6 27 -6z m77 -40 c0 -11 -4 -20 -9 -20 -5 0 -7 9 -4 20 3 11
7 20 9 20 2 0 4 -9 4 -20z m121 -27 c13 -16 12 -17 -3 -4 -10 7 -18 15 -18 17
0 8 8 3 21 -13z m-1271 -45 c0 -5 -6 -3 -13 4 -8 7 -14 19 -14 26 0 11 4 10
14 -4 7 -10 13 -22 13 -26z m889 7 c11 -20 23 -47 25 -62 3 -14 12 -33 21 -43
24 -27 17 -31 -19 -9 -30 18 -41 35 -60 92 -3 9 -1 17 3 17 5 0 7 9 4 20 -8
30 3 24 26 -15z m-629 -75 c18 -35 10 -46 -10 -12 -11 17 -24 32 -30 32 -5 0
-10 5 -10 10 0 16 37 -7 50 -30z m1162 6 c5 -10 7 -20 4 -24 -4 -3 -9 4 -13
16 -3 12 -9 20 -13 17 -5 -3 -11 -1 -14 4 -4 5 1 8 10 7 9 -1 21 -10 26 -20z
m-1281 -43 c13 -16 12 -17 -3 -4 -10 7 -18 15 -18 17 0 8 8 3 21 -13z m-834
-15 c-3 -8 -6 -5 -6 6 -1 11 2 17 5 13 3 -3 4 -12 1 -19z m-270 -35 c-3 -10
-5 -2 -5 17 0 19 2 27 5 18 2 -10 2 -26 0 -35z m1072 -13 c11 -24 11 -24 -3
-6 -9 11 -16 24 -16 30 0 12 5 7 19 -24z m934 5 c31 -21 1 -18 -48 6 l-40 19
33 -5 c18 -2 43 -12 55 -20z m597 -56 c0 -30 113 -41 153 -14 22 14 27 14 68
-9 33 -19 58 -24 101 -24 35 0 64 -5 74 -13 9 -7 31 -12 50 -10 35 3 40 -4 25
-28 -5 -8 -16 -11 -30 -6 -12 4 -53 1 -91 -5 -58 -10 -81 -9 -144 5 -82 18
-93 18 -88 -3 4 -19 61 -70 85 -78 13 -4 17 -12 14 -26 -4 -14 0 -22 14 -25
10 -3 19 -9 19 -14 0 -5 8 -9 18 -9 25 0 49 -18 36 -27 -6 -5 -14 -16 -17 -26
-6 -15 -13 -17 -39 -10 -42 10 -107 8 -119 -4 -21 -21 10 -64 62 -85 38 -16
47 -23 35 -30 -8 -5 -13 -17 -11 -29 4 -18 0 -20 -21 -16 -13 2 -27 0 -30 -4
-3 -5 -10 -9 -15 -9 -6 0 -7 4 -4 10 3 6 -1 7 -10 4 -8 -4 -26 1 -40 10 -15
10 -54 18 -102 20 -43 3 -118 12 -166 20 -49 9 -105 15 -125 14 -68 -2 -332
155 -332 198 0 8 10 15 23 15 77 4 98 8 152 28 33 13 62 26 65 30 3 3 49 14
103 23 54 9 101 19 105 23 3 3 1 15 -6 25 -19 30 -15 43 8 30 15 -8 20 -8 20
2 0 10 19 13 78 10 l77 -3 -36 33 c-46 42 -42 65 7 36 19 -11 34 -24 34 -29z
m-2600 25 c0 -8 -5 -12 -10 -9 -6 4 -8 11 -5 16 9 14 15 11 15 -7z m141 -7
c-10 -9 -11 -8 -5 6 3 10 9 15 12 12 3 -3 0 -11 -7 -18z m71 0 c3 -15 0 -24
-9 -24 -7 0 -13 10 -14 21 -1 12 -5 6 -9 -14 -5 -21 -5 -39 1 -45 7 -7 8 -4 4
8 -4 10 -2 17 4 17 12 0 15 -32 4 -43 -3 -4 -12 2 -20 13 -12 17 -10 57 4 83
9 16 31 6 35 -16z m67 14 c13 -8 13 -14 2 -38 -8 -16 -16 -23 -18 -15 -3 6 -9
10 -14 6 -5 -3 -7 5 -5 18 3 13 5 26 5 31 1 9 13 9 30 -2z m836 -41 c3 -5 -1
-10 -10 -10 -9 0 -13 5 -10 10 3 6 8 10 10 10 2 0 7 -4 10 -10z m-818 -47 c-3
-10 -5 -2 -5 17 0 19 2 27 5 18 2 -10 2 -26 0 -35z m-264 -31 c3 -12 1 -20 -3
-17 -5 3 -12 1 -15 -5 -10 -16 -35 8 -35 32 0 10 -4 16 -10 13 -5 -3 -7 0 -4
9 14 37 54 18 67 -32z m1088 25 c-16 -16 -25 -1 -10 16 8 8 16 11 18 5 2 -5
-2 -15 -8 -21z m1059 -19 c0 -11 -42 -10 -60 2 -10 6 -3 8 23 7 20 -1 37 -5
37 -9z m-1960 -105 c-11 -17 -11 -17 -6 0 3 10 7 28 7 40 2 22 2 22 6 0 2 -12
-1 -30 -7 -40z m431 21 c9 -11 2 -9 -18 6 -18 13 -33 25 -33 27 0 8 38 -17 51
-33z m-441 -3 c0 -6 -4 -13 -10 -16 -5 -3 -10 1 -10 9 0 9 5 16 10 16 6 0 10
-4 10 -9z m3340 -16 c-9 -10 -9 -15 -1 -15 18 0 13 -28 -7 -39 -14 -8 -18 -6
-18 10 0 13 5 18 15 14 12 -5 12 -3 1 11 -12 13 -11 17 1 25 20 13 23 11 9 -6z
m-3270 -26 c0 -5 -4 -9 -10 -9 -5 0 -10 7 -10 16 0 8 5 12 10 9 6 -3 10 -10
10 -16z m-96 -5 c15 -6 17 -4 11 7 -5 8 1 5 13 -5 12 -11 22 -30 22 -43 0 -23
0 -23 -31 -7 -26 13 -33 14 -40 2 -7 -11 -10 -11 -18 0 -7 13 -26 19 -61 22
-12 0 -12 3 2 14 10 7 14 17 10 21 -8 9 64 1 92 -11z m3392 -33 c-4 -5 0 -11
6 -14 16 -5 7 -17 -18 -21 -11 -2 -25 3 -33 11 -12 13 -11 14 6 9 14 -4 23 -1
27 9 3 8 8 15 11 15 4 0 4 -4 1 -9z m-3232 -37 c3 -8 2 -12 -4 -9 -6 3 -10 10
-10 16 0 14 7 11 14 -7z m583 -60 c-3 -3 -12 -4 -19 -1 -8 3 -5 6 6 6 11 1 17
-2 13 -5z m40 -10 c-3 -3 -12 -4 -19 -1 -8 3 -5 6 6 6 11 1 17 -2 13 -5z m84
-25 c59 -30 42 -34 -22 -5 -30 14 -46 25 -36 25 10 1 36 -8 58 -20z m-726 -7
c8 -23 0 -24 -18 -4 -14 15 -15 19 -2 19 8 0 17 -7 20 -15z m3192 -38 c-3 -3
-12 -4 -19 -1 -8 3 -5 6 6 6 11 1 17 -2 13 -5z m-3155 -39 c11 -14 10 -25 -2
-25 -5 0 -17 15 -26 33 -17 31 -17 32 2 17 10 -8 22 -19 26 -25z m2483 -15
c-3 -5 -1 -10 4 -10 6 0 11 6 12 13 0 6 4 3 8 -8 11 -26 7 -29 -18 -15 -18 9
-21 30 -5 30 3 0 2 -4 -1 -10z m243 -38 c-29 -5 -36 8 -13 24 17 13 20 13 26
-3 4 -13 1 -19 -13 -21z m50 -3 c-15 -10 -32 16 -22 33 5 7 11 5 21 -7 10 -15
10 -20 1 -26z m-283 -9 c3 -5 2 -10 -4 -10 -5 0 -13 5 -16 10 -3 6 -2 10 4 10
5 0 13 -4 16 -10z m-1405 -25 c11 -13 10 -14 -4 -9 -9 3 -16 10 -16 15 0 13 6
11 20 -6z m1690 5 c0 -5 -4 -10 -10 -10 -5 0 -10 5 -10 10 0 6 5 10 10 10 6 0
10 -4 10 -10z m-2570 -150 c0 -5 -4 -10 -10 -10 -5 0 -10 5 -10 10 0 6 5 10
10 10 6 0 10 -4 10 -10z m265 -260 c2 -20 0 -29 -6 -23 -5 5 -11 24 -13 42 -2
19 0 29 5 24 5 -5 11 -24 14 -43z m-95 19 c0 -14 -17 -10 -23 5 -4 10 -1 13 9
9 7 -3 14 -9 14 -14z m671 -329 c10 0 39 -53 39 -71 0 -7 -10 -3 -23 9 -13 12
-30 22 -39 22 -24 0 -40 24 -26 38 7 7 19 10 26 7 8 -3 18 -5 23 -5z m97 -115
c125 -30 202 -89 202 -155 l-1 -25 -14 25 c-10 18 -14 20 -15 8 0 -9 7 -23 15
-32 8 -8 15 -18 15 -23 0 -4 -17 9 -38 29 -61 61 -82 78 -91 78 -5 0 -11 10
-13 21 -2 13 -20 33 -43 47 l-40 25 28 -30 c22 -24 24 -29 10 -28 -36 3 -62
17 -68 36 -4 10 -11 19 -16 19 -5 0 -9 5 -9 10 0 13 3 13 78 -5z"/>
<path d="M2216 1451 c5 -5 20 -12 34 -16 22 -7 23 -6 11 9 -7 9 -23 16 -34 16
-13 0 -17 -4 -11 -9z"/>
<path d="M2131 1437 c2 -1 13 -9 24 -17 19 -14 19 -14 6 3 -7 9 -18 17 -24 17
-6 0 -8 -1 -6 -3z"/>
<path d="M658 3973 c7 -3 16 -2 19 1 4 3 -2 6 -13 5 -11 0 -14 -3 -6 -6z"/>
<path d="M668 3843 c-21 -5 -24 -19 -6 -25 8 -3 7 -11 -5 -28 -18 -26 -22 -50
-9 -50 14 0 36 45 37 78 1 17 1 31 1 31 -1 -1 -9 -3 -18 -6z"/>
<path d="M1536 3416 c-29 -8 -43 -21 -62 -54 -13 -24 -25 -54 -26 -68 -1 -13
-6 -24 -11 -24 -19 0 -48 -40 -62 -86 -20 -65 -19 -76 6 -103 17 -18 23 -20
30 -9 7 10 9 10 9 0 0 -7 -10 -16 -22 -21 -31 -12 -56 -42 -53 -63 2 -10 -1
-20 -6 -24 -5 -3 -5 -13 2 -25 10 -19 12 -18 48 20 21 23 43 41 49 41 16 0 19
44 4 55 -10 8 -4 25 30 77 24 37 49 68 56 68 6 0 12 5 12 10 0 6 11 16 25 22
13 6 27 20 31 31 6 20 7 20 17 1 22 -41 48 -39 67 6 25 61 -4 140 -54 146 -11
1 -21 3 -21 4 0 7 -37 5 -69 -4z"/>
<path d="M589 3147 c-9 -7 -19 -21 -21 -32 -2 -11 -10 -19 -16 -17 -18 3 -26
-26 -12 -43 25 -30 68 7 76 65 6 42 0 48 -27 27z m-21 -70 c14 4 14 3 2 -5
-16 -12 -30 -7 -29 11 0 9 2 9 5 0 3 -7 13 -9 22 -6z"/>
<path d="M575 3029 c-11 -16 -1 -19 13 -3 7 8 8 14 3 14 -5 0 -13 -5 -16 -11z"/>
<path d="M1599 2514 c-15 -25 -15 -29 5 -68 12 -22 23 -50 24 -61 2 -11 8 -27
14 -35 6 -11 8 -6 3 15 -4 25 -3 27 6 12 10 -17 13 -14 31 22 19 39 19 43 3
67 -20 31 -38 27 -46 -12 -7 -36 -17 -16 -21 44 l-3 43 -16 -27z"/>
<path d="M3480 2380 c0 -5 5 -10 11 -10 5 0 7 5 4 10 -3 6 -8 10 -11 10 -2 0
-4 -4 -4 -10z"/>
<path d="M1650 2305 c0 -12 34 -65 42 -65 4 0 8 -7 8 -16 0 -8 5 -12 10 -9 6
3 10 0 10 -7 0 -7 6 -1 14 14 9 18 11 37 6 60 -4 18 -8 25 -9 15 -1 -14 -6
-17 -21 -12 -16 5 -19 3 -13 -12 6 -15 5 -16 -9 -3 -9 8 -15 19 -15 24 1 5 -4
11 -10 13 -7 3 -13 2 -13 -2z"/>
<path d="M3961 2285 c-22 -10 -31 -20 -28 -30 4 -8 2 -17 -4 -20 -5 -4 -6 -12
-3 -18 4 -7 4 -9 -1 -5 -4 4 -14 3 -21 -3 -14 -11 -8 -36 14 -58 8 -9 12 -31
11 -59 -3 -36 0 -46 14 -48 9 -1 19 2 23 7 10 17 22 9 17 -11 -3 -11 0 -20 6
-20 8 0 11 44 11 140 0 77 -1 140 -2 140 -2 -1 -18 -7 -37 -15z"/>
<path d="M471 1893 c0 -11 3 -13 6 -5 2 6 9 10 14 6 5 -3 9 0 9 5 0 6 -7 11
-15 11 -8 0 -15 -8 -14 -17z"/>
<path d="M303 1833 c-15 -5 -17 -23 -4 -23 5 0 11 7 15 15 3 8 4 15 3 14 -1 0
-8 -3 -14 -6z"/>
<path d="M3933 303 c9 -2 25 -2 35 0 9 3 1 5 -18 5 -19 0 -27 -2 -17 -5z"/>
<path d="M3908 283 c7 -3 16 -2 19 1 4 3 -2 6 -13 5 -11 0 -14 -3 -6 -6z"/>
<path d="M3943 213 c-28 -5 -30 -33 -3 -33 12 0 20 7 20 16 0 11 6 15 20 11
11 -3 18 -1 14 4 -5 9 -12 9 -51 2z"/>
</g>
</svg>
