<?xml version="1.0" standalone="no"?>
<!DOCTYPE svg PUBLIC "-//W3C//DTD SVG 20010904//EN"
 "http://www.w3.org/TR/2001/REC-SVG-20010904/DTD/svg10.dtd">
<svg version="1.0" xmlns="http://www.w3.org/2000/svg"
 width="399.000000pt" height="399.000000pt" viewBox="0 0 399.000000 399.000000"
 preserveAspectRatio="xMidYMid meet">
<metadata>
Created by potrace 1.11, written by Peter Selinger 2001-2013
</metadata>
<g transform="translate(0.000000,399.000000) scale(0.100000,-0.100000)"
fill="#000000" stroke="none">
<path d="M1804 3979 c-136 -14 -157 -21 -159 -49 -2 -14 3 -39 10 -56 8 -19 9
-37 4 -47 -6 -11 -3 -35 10 -72 11 -30 16 -55 12 -55 -4 0 -7 -15 -7 -33 0
-23 7 -39 22 -50 21 -16 22 -15 17 3 -3 11 0 20 6 20 11 0 14 -14 12 -65 -2
-40 10 -55 44 -58 20 -1 28 3 31 16 3 22 14 36 14 19 0 -20 49 -13 73 10 12
12 27 35 32 51 l11 29 11 -24 c6 -12 17 -43 24 -67 7 -24 19 -45 26 -48 10 -4
9 -8 -2 -20 -8 -8 -15 -28 -15 -45 0 -17 -8 -40 -17 -50 -9 -10 -17 -34 -17
-53 -1 -39 -11 -46 -21 -14 -6 17 -9 19 -16 8 -14 -22 -11 -29 16 -39 14 -5
25 -14 25 -20 0 -13 -17 -13 -25 0 -4 7 -24 8 -53 4 -52 -8 -112 -55 -133
-106 -13 -32 -7 -105 11 -122 12 -11 9 24 -7 92 -3 12 -1 22 5 22 5 0 13 -27
17 -60 4 -33 9 -60 11 -60 2 0 13 9 24 20 24 24 68 26 96 5 10 -8 27 -15 37
-15 9 0 17 -2 17 -4 0 -12 -23 -66 -28 -67 -39 -4 -61 -14 -80 -35 -13 -14
-29 -23 -35 -21 -16 5 -47 -47 -47 -80 0 -16 0 -53 -1 -85 0 -31 5 -59 11 -63
5 -3 10 -31 10 -61 0 -39 8 -73 29 -119 16 -35 32 -79 36 -97 l8 -33 -22 25
-21 25 14 -42 c10 -29 11 -43 4 -45 -8 -3 -5 -15 7 -35 12 -21 23 -29 36 -26
11 3 19 9 19 14 0 11 67 -30 99 -61 42 -42 71 -79 71 -94 0 -20 -59 -43 -70
-26 -4 7 -21 13 -38 14 -17 1 -34 5 -38 9 -16 16 -26 5 -21 -23 5 -21 3 -29
-6 -27 -7 1 -11 -7 -9 -18 2 -17 0 -16 -13 5 -10 16 -13 38 -9 62 5 30 2 38
-15 48 -15 8 -21 8 -21 0 0 -6 -5 -8 -12 -4 -8 5 -9 2 -5 -9 7 -20 -4 -22 -21
-5 -9 9 -12 8 -12 -6 0 -9 -4 -14 -10 -11 -6 4 -7 -1 -3 -11 4 -11 8 -13 11
-6 8 25 60 -30 72 -77 13 -47 19 -91 12 -91 -2 0 -19 12 -38 26 -19 15 -34 22
-34 18 1 -5 15 -45 33 -89 20 -50 38 -80 47 -80 8 0 29 -16 45 -36 43 -52 87
-82 97 -66 5 8 8 6 8 -6 0 -10 8 -36 19 -57 l19 -39 -37 29 c-20 16 -45 41
-55 56 -11 14 -44 41 -73 61 -50 33 -68 51 -103 103 -58 87 -163 215 -176 215
-9 0 -28 15 -42 33 -14 18 -19 32 -12 32 6 0 0 14 -15 31 -33 40 -119 219
-155 324 -20 56 -34 81 -47 84 -10 2 -23 7 -30 13 -7 6 -14 5 -18 -2 -3 -6
-11 -7 -17 -4 -6 4 -8 -1 -3 -15 4 -14 0 -30 -14 -47 -12 -15 -21 -32 -21 -38
0 -6 4 -5 9 3 6 10 10 10 16 1 4 -7 -1 -13 -14 -17 -12 -3 -21 -12 -21 -20 0
-13 3 -13 18 -2 16 13 16 13 0 -7 -10 -11 -18 -30 -18 -42 0 -12 -4 -22 -10
-22 -9 0 -30 -42 -46 -95 -5 -17 -22 -36 -39 -45 -17 -8 -31 -18 -33 -22 -2
-5 -9 -8 -16 -8 -32 0 -95 -107 -96 -163 l-1 -22 -18 22 c-22 27 -21 86 3 112
9 10 16 27 16 38 0 11 7 26 16 34 9 7 14 22 11 35 -4 20 -1 22 24 17 44 -9 75
4 87 34 14 37 25 83 26 109 1 12 9 31 19 42 12 13 16 28 12 41 -8 27 13 70 26
50 6 -10 11 -11 20 -2 8 8 7 17 -4 34 -8 13 -17 49 -20 79 -4 36 -3 46 3 30 8
-23 8 -23 10 10 4 57 7 77 13 94 4 10 1 16 -7 16 -13 0 -46 -66 -46 -91 0 -6
-9 -22 -20 -36 l-20 -26 0 37 c0 21 6 39 13 42 8 3 14 24 16 50 1 25 6 56 11
70 5 13 7 24 4 24 -3 0 6 10 19 23 22 20 45 83 26 71 -5 -3 -9 0 -9 5 0 6 5
11 10 11 21 0 50 41 50 70 0 31 19 80 31 80 4 0 9 10 13 23 3 13 17 41 32 62
21 31 25 47 21 80 -10 87 -21 98 -83 79 -37 -11 -46 -11 -58 1 -25 25 -74 8
-91 -31 -8 -19 -21 -34 -30 -34 -10 0 -13 5 -9 12 5 7 2 8 -7 3 -29 -17 -58
-48 -52 -58 3 -5 9 -3 14 4 6 10 9 10 9 2 0 -17 -21 -27 -29 -14 -16 26 -54
-17 -115 -129 -10 -19 -48 -66 -84 -105 -35 -38 -68 -80 -73 -92 -4 -12 -26
-49 -49 -81 -55 -81 -105 -233 -91 -275 14 -40 14 -40 -9 -34 -10 3 -21 0 -24
-7 -2 -6 -5 -5 -5 4 -1 10 -13 15 -41 16 -22 1 -40 -2 -40 -7 0 -5 -11 -4 -24
1 -27 10 -36 5 -36 -19 0 -9 -10 -25 -21 -35 -22 -18 -22 -18 -16 11 7 35 -1
75 -14 67 -5 -3 -9 -16 -9 -30 0 -14 -11 -35 -24 -47 -14 -13 -26 -36 -29 -52
-2 -17 -3 -11 -2 13 1 23 -2 45 -8 49 -6 4 -8 0 -4 -10 3 -9 2 -19 -3 -22 -6
-4 -10 -17 -10 -30 0 -18 -4 -22 -20 -18 -12 3 -20 14 -21 27 0 11 -5 30 -10
41 -7 15 -8 12 -4 -15 l5 -35 -15 30 c-8 17 -12 42 -9 58 3 15 1 27 -4 27 -6
0 -15 14 -21 30 -9 27 -20 35 -43 31 -4 0 -5 6 -2 14 8 19 -3 19 -23 0 -18
-19 -46 -103 -78 -240 -39 -168 -39 -159 3 -188 42 -28 100 -41 122 -27 10 7
11 10 2 10 -9 0 -10 8 -6 28 7 25 6 26 -11 12 -17 -14 -18 -13 -13 8 4 12 2
20 -3 16 -5 -3 -9 2 -9 12 0 12 6 15 20 11 17 -4 20 -2 14 15 -4 14 -2 18 5
14 6 -4 11 -16 11 -27 0 -10 7 -19 15 -19 9 0 15 -9 15 -22 0 -19 2 -20 10 -8
8 13 10 12 10 -2 0 -10 5 -18 10 -18 6 0 10 -5 10 -11 0 -5 -4 -7 -10 -4 -5 3
-20 -1 -32 -9 -12 -9 -17 -16 -10 -16 6 0 11 -6 10 -12 -5 -22 40 -20 64 1 12
12 25 21 30 21 4 0 9 24 9 53 1 44 2 48 9 22 4 -16 8 -25 9 -20 0 6 11 15 24
20 12 6 21 17 19 24 -2 10 4 12 20 6 13 -4 32 -6 43 -5 93 10 195 -22 195 -60
0 -11 8 -25 18 -32 18 -13 32 -49 35 -95 1 -11 15 -29 30 -40 15 -10 30 -29
33 -43 3 -14 15 -44 27 -67 25 -48 15 -70 -15 -33 -42 52 -55 66 -89 96 -52
48 -120 56 -73 9 27 -27 10 -27 -30 0 -50 34 -62 31 -37 -7 14 -22 27 -32 40
-30 20 3 133 -53 139 -69 2 -5 8 -9 14 -9 12 0 48 -43 42 -51 -2 -4 -15 -5
-29 -4 -21 3 -25 -1 -25 -23 l0 -27 -23 29 c-17 21 -34 30 -60 32 -33 3 -49
-7 -29 -19 4 -2 1 -2 -6 -1 -6 2 -12 -2 -12 -8 0 -7 -6 -3 -14 7 -12 16 -16
17 -30 6 -9 -7 -16 -10 -16 -5 0 5 -5 1 -11 -8 -5 -10 -14 -18 -19 -18 -17 0
-46 -36 -43 -51 3 -8 0 -7 -7 4 -6 9 -17 17 -25 17 -8 0 -12 6 -9 14 5 14 -10
29 -33 32 -12 2 -17 -9 -14 -28 0 -4 -8 -10 -19 -13 -22 -7 -26 -40 -21 -142
2 -31 -1 -53 -7 -53 -17 0 -25 -39 -12 -55 6 -8 17 -12 25 -9 10 4 11 -13 7
-85 -4 -77 -2 -91 10 -91 9 0 18 -9 21 -20 6 -24 -8 -27 -17 -4 -3 8 -10 13
-15 9 -5 -3 -12 -1 -16 5 -3 5 -19 10 -35 10 -16 0 -32 5 -35 10 -3 6 -16 10
-29 10 -29 0 -45 17 -38 42 4 18 10 20 57 14 l53 -6 -2 36 -1 36 18 -23 18
-22 -4 24 c-3 13 -17 48 -32 77 -27 54 -28 107 -1 124 6 4 11 21 12 37 1 17
-2 29 -6 26 -5 -3 -11 1 -13 7 -4 10 -6 9 -6 -1 -1 -9 -11 -3 -27 15 -16 16
-22 30 -15 32 6 2 11 15 11 28 0 14 -4 22 -10 19 -5 -3 -10 3 -10 15 0 13 -4
19 -12 14 -6 -4 -8 -3 -4 4 10 16 -15 64 -31 58 -8 -3 -11 -1 -8 4 13 20 -14
9 -29 -12 -12 -17 -13 -24 -3 -30 9 -6 9 -8 0 -8 -7 0 -17 -15 -22 -32 -5 -18
-10 -25 -10 -15 -2 32 -33 62 -61 59 -14 -2 -29 -8 -34 -13 -21 -20 5 -253 49
-429 65 -262 212 -552 390 -770 119 -145 325 -327 485 -428 88 -55 274 -143
385 -182 123 -43 308 -89 386 -96 l64 -6 -33 31 c-18 17 -26 31 -19 31 7 0 28
-16 47 -35 29 -29 41 -35 77 -35 41 0 43 1 33 20 -14 26 -5 40 25 40 35 0 77
-18 107 -47 25 -24 29 -25 115 -18 321 24 674 138 928 300 223 143 447 360
595 580 51 76 150 255 150 271 0 5 -42 27 -92 48 -112 47 -129 60 -68 52 26
-4 51 -2 60 4 13 9 8 17 -30 50 -37 33 -42 42 -30 50 12 8 11 10 -7 10 -26 0
-38 15 -22 26 8 4 9 3 5 -4 -4 -7 -3 -12 2 -12 11 0 44 35 38 41 -3 2 6 9 20
16 22 10 25 9 32 -20 6 -23 14 -32 30 -33 17 -1 20 2 12 11 -7 8 -7 15 -2 19
6 3 33 -15 62 -40 29 -27 55 -43 60 -38 10 11 60 169 60 192 0 13 -15 20 -65
30 -35 6 -75 12 -89 12 -13 0 -39 6 -57 14 -19 7 -43 16 -54 20 -42 15 15 27
146 31 72 2 133 5 136 8 3 3 6 21 6 39 1 18 6 36 11 39 4 4 11 48 14 98 l5 92
-34 29 c-19 16 -41 29 -49 30 -13 0 -13 1 0 10 13 9 13 10 -1 10 -8 0 -31 11
-49 25 -19 14 -52 28 -73 32 -46 7 -40 18 9 15 20 -2 49 3 65 10 l29 13 -37
32 c-20 18 -32 33 -27 33 6 0 16 -6 24 -12 12 -11 12 -10 0 7 -8 11 -22 29
-32 41 -18 20 -15 60 3 48 5 -3 9 -1 9 3 0 5 -17 19 -37 31 l-38 22 60 1 c54
0 57 2 30 10 -16 6 -47 17 -67 26 -29 12 -41 13 -51 4 -10 -7 -23 -8 -43 -2
-16 5 -51 12 -79 14 -51 5 -51 3 2 -29 15 -9 16 -14 5 -27 -11 -13 -8 -15 30
-11 43 4 43 4 8 -6 -19 -5 -65 -7 -101 -4 -54 3 -68 1 -73 -11 -3 -9 -2 -14 3
-11 9 6 35 -44 26 -52 -3 -3 -5 0 -5 6 0 7 -7 12 -15 12 -8 0 -15 -4 -15 -10
0 -17 -42 -11 -173 25 -105 30 -146 36 -235 38 -103 2 -107 3 -110 25 -5 31
14 51 66 73 82 36 27 86 -62 57 -36 -12 -46 -12 -46 -3 0 15 51 35 88 35 13 0
41 5 62 11 32 10 44 8 86 -11 63 -28 100 -33 118 -14 8 7 25 14 38 15 l23 0
-23 10 c-17 6 -27 5 -38 -6 -17 -16 -25 -19 -22 -7 5 17 -26 89 -49 114 -29
30 -68 45 -59 22 3 -8 -1 -14 -10 -14 -8 0 -12 4 -9 10 8 13 -55 51 -79 48
-24 -4 -34 -28 -12 -28 10 0 13 -6 10 -15 -4 -10 0 -15 11 -15 9 0 13 5 10 10
-4 6 5 5 19 -2 14 -6 26 -14 26 -18 0 -3 16 -12 35 -20 42 -17 46 -32 6 -24
-21 5 -34 1 -50 -15 -21 -21 -51 -28 -51 -13 0 9 -6 11 -55 15 -20 1 -29 -2
-27 -10 3 -18 -72 -17 -107 2 -16 8 -31 21 -35 30 -9 24 5 75 20 75 21 0 17
17 -11 54 l-25 33 29 45 c21 34 37 47 61 52 58 11 154 6 180 -10 19 -11 20
-14 5 -10 -11 3 -42 8 -69 12 -42 6 -48 5 -43 -9 4 -12 2 -14 -10 -10 -10 4
-14 2 -10 -4 4 -6 -4 -13 -17 -17 -22 -5 -42 -33 -32 -43 2 -3 14 0 25 7 12 6
21 7 21 1 0 -5 -7 -12 -16 -15 -33 -13 -5 -18 31 -6 27 9 40 9 48 1 6 -6 24
-11 40 -11 24 0 27 -3 18 -13 -9 -11 0 -17 44 -29 34 -9 58 -12 61 -6 4 6 40
7 90 3 49 -4 84 -4 84 2 0 9 -67 34 -147 55 -24 6 -43 15 -43 18 0 29 214 6
251 -26 8 -8 24 -14 35 -14 34 0 45 -19 27 -46 -8 -13 -23 -24 -32 -24 -9 -1
1 -10 22 -21 21 -11 42 -17 47 -14 17 10 143 -37 178 -67 18 -15 51 -37 74
-49 37 -19 42 -19 56 -5 14 14 14 16 2 16 -9 0 -21 9 -28 20 -15 25 -2 26 20
3 39 -42 105 -83 132 -83 16 0 18 5 13 43 -7 47 -82 288 -103 329 -12 24 -18
26 -55 21 -40 -6 -41 -5 -30 16 7 11 18 21 26 21 27 0 27 21 -1 57 -15 20 -21
33 -14 28 33 -20 -126 232 -217 345 -85 105 -272 284 -373 356 -399 286 -897
422 -1366 373z m71 -289 c3 -5 1 -10 -4 -10 -6 0 -11 5 -11 10 0 6 2 10 4 10
3 0 8 -4 11 -10z m475 -234 c0 -8 -7 -16 -15 -20 -12 -4 -13 -2 -2 14 14 24
17 25 17 6z m-21 -111 c2 -3 -11 -5 -31 -5 -19 0 -38 -3 -42 -7 -4 -5 -13 -8
-19 -8 -6 0 -15 -15 -19 -33 -7 -24 -17 -36 -38 -44 l-29 -10 25 -21 c14 -12
29 -38 34 -57 l8 -35 1 38 c1 43 13 48 29 12 22 -47 12 -86 -15 -63 -10 8 -17
9 -21 1 -4 -6 -27 -11 -52 -11 -100 0 -146 -4 -165 -15 -17 -8 -18 -8 -9 4 7
8 8 22 3 34 -11 29 -11 119 1 131 8 8 6 15 -5 24 -8 7 -15 18 -15 24 0 6 4 5
9 -3 5 -8 18 -16 28 -17 41 -6 104 -22 109 -27 7 -6 60 45 66 63 2 6 10 12 18
13 8 2 24 8 35 15 18 10 82 8 94 -3z m131 -71 c0 -2 -13 2 -30 11 -16 9 -30
18 -30 21 0 2 14 -2 30 -11 17 -9 30 -18 30 -21z m-1428 -6 c-7 -7 -12 -8 -12
-2 0 14 12 26 19 19 2 -3 -1 -11 -7 -17z m2120 -54 c21 -21 -51 -125 -108
-157 -12 -7 -40 -25 -63 -41 -26 -18 -55 -29 -79 -30 -35 -1 -37 0 -40 34 -4
46 44 114 96 137 20 8 44 19 52 24 57 34 125 50 142 33z m-2128 -107 c-3 -8 3
-20 12 -28 16 -12 17 -12 12 2 -3 9 -2 22 3 30 6 10 9 7 9 -13 0 -33 -12 -41
-35 -24 -16 11 -16 46 -1 46 3 0 3 -6 0 -13z m2593 -43 c-3 -3 -12 -4 -19 -1
-8 3 -5 6 6 6 11 1 17 -2 13 -5z m-60 -10 c-3 -3 -12 -4 -19 -1 -8 3 -5 6 6 6
11 1 17 -2 13 -5z m-1077 -215 c0 16 60 14 60 -1 0 -7 20 -22 43 -32 78 -36
81 -59 10 -68 -31 -5 -55 0 -95 19 -70 32 -88 50 -88 85 l0 30 35 -22 c19 -12
35 -17 35 -11z m-246 -63 c-5 -13 -13 -16 -38 -10 -45 9 -70 27 -27 18 26 -5
32 -3 26 7 -6 9 -4 11 8 6 12 -4 14 -2 10 11 -5 16 -4 16 11 1 10 -9 14 -22
10 -33z m-228 -13 c-7 -7 -26 7 -26 19 0 6 6 6 15 -2 9 -7 13 -15 11 -17z
m1174 -18 c0 -8 -2 -15 -4 -15 -2 0 -6 7 -10 15 -3 8 -1 15 4 15 6 0 10 -7 10
-15z m200 0 c0 -8 -4 -15 -10 -15 -5 0 -10 7 -10 15 0 8 5 15 10 15 6 0 10 -7
10 -15z m-1430 -5 c0 -5 -6 -10 -14 -10 -8 0 -18 5 -21 10 -3 6 3 10 14 10 12
0 21 -4 21 -10z m325 0 c3 -5 2 -10 -4 -10 -5 0 -13 5 -16 10 -3 6 -2 10 4 10
5 0 13 -4 16 -10z m1275 1 c0 -5 -9 -7 -20 -4 -11 3 -20 7 -20 9 0 2 9 4 20 4
11 0 20 -4 20 -9z m100 -11 c0 -5 -4 -10 -9 -10 -6 0 -13 5 -16 10 -3 6 1 10
9 10 9 0 16 -4 16 -10z m-1255 -77 l30 -25 -41 22 c-23 12 -55 33 -70 46 l-29
24 40 -21 c22 -11 54 -32 70 -46z m-1663 15 c-7 -7 -12 -8 -12 -2 0 14 12 26
19 19 2 -3 -1 -11 -7 -17z m1792 -23 c27 -8 78 -17 115 -20 65 -5 91 -20 91
-51 0 -10 -6 -10 -27 1 -16 7 -54 12 -85 11 -39 -1 -59 3 -63 12 -2 7 -25 21
-50 32 -25 11 -45 22 -45 25 0 8 10 6 64 -10z m-1454 -77 c-9 -37 -37 -95 -50
-103 -4 -3 -3 8 3 25 6 16 15 30 19 30 4 0 8 13 8 28 0 22 15 52 26 52 1 0 -2
-15 -6 -32z m276 -51 c1 -23 5 -52 9 -64 4 -13 3 -23 -1 -23 -5 0 -14 10 -19
23 -6 13 -17 21 -28 19 -23 -4 -22 13 4 39 13 13 18 27 14 39 -4 14 -2 18 7
15 7 -3 14 -23 14 -48z m1184 37 c0 -8 -5 -12 -10 -9 -6 4 -8 11 -5 16 9 14
15 11 15 -7z m-2157 -51 c-6 -2 -8 -15 -5 -29 2 -14 8 -21 11 -15 4 5 11 -5
17 -23 9 -29 8 -33 -7 -29 -30 8 -49 76 -33 118 6 16 8 16 17 -1 7 -12 7 -19
0 -21z m396 -31 c-5 -13 -9 -42 -9 -65 -1 -35 -2 -39 -11 -24 -6 11 -9 31 -6
45 3 15 2 43 -3 62 -5 21 -9 27 -10 15 -1 -12 -4 -15 -7 -7 -3 7 1 19 7 27 19
23 51 -21 39 -53z m-62 14 c-5 -30 -3 -34 13 -31 16 3 17 0 8 -32 -7 -24 -6
-39 1 -46 14 -14 14 -30 1 -22 -13 8 -13 -1 0 -24 12 -24 -21 -59 -37 -39 -16
20 -23 48 -13 48 5 0 14 -8 19 -17 9 -15 11 -13 12 12 2 47 -2 89 -11 105 -8
15 -2 80 7 80 3 0 3 -15 0 -34z m1151 -11 c-3 -3 -9 2 -12 12 -6 14 -5 15 5 6
7 -7 10 -15 7 -18z m-1178 -12 c0 -21 -3 -24 -9 -14 -5 8 -7 20 -4 28 8 21 13
15 13 -14z m697 -5 c-3 -8 -6 -5 -6 6 -1 11 2 17 5 13 3 -3 4 -12 1 -19z
m-770 -10 c-3 -8 -6 -5 -6 6 -1 11 2 17 5 13 3 -3 4 -12 1 -19z m2273 7 c0 -2
-7 -5 -15 -9 -9 -3 -15 0 -15 9 0 9 6 12 15 9 8 -4 15 -7 15 -9z m-2703 -27
c-3 -7 -5 -2 -5 12 0 14 2 19 5 13 2 -7 2 -19 0 -25z m1113 -71 c0 -5 -7 -2
-15 7 -8 8 -15 20 -15 27 0 14 29 -20 30 -34z m-1053 -19 c-3 -8 -6 -5 -6 6
-1 11 2 17 5 13 3 -3 4 -12 1 -19z m30 -10 c-3 -8 -6 -5 -6 6 -1 11 2 17 5 13
3 -3 4 -12 1 -19z m1056 -24 c6 -32 2 -30 -16 5 -11 22 -12 28 -2 25 7 -3 15
-16 18 -30z m603 -194 c9 0 13 -4 10 -9 -8 -13 5 -72 15 -66 4 3 10 1 14 -5 7
-12 -38 -14 -49 -2 -4 4 -12 8 -17 8 -5 1 -11 2 -14 3 -3 0 1 14 10 30 8 17
13 36 12 43 -2 7 -2 10 0 6 3 -5 11 -8 19 -8z m-522 -70 l6 -35 -15 30 c-16
34 -20 64 -6 50 5 -6 12 -26 15 -45z m2262 25 c19 -14 19 -14 -2 -15 -12 0
-24 7 -28 15 -7 19 5 19 30 0z m-2656 -58 c0 -10 81 -129 95 -139 6 -4 2 -8
-8 -8 -9 0 -23 11 -29 25 -6 14 -15 25 -20 25 -4 0 -8 8 -8 17 0 9 -11 28 -24
42 -14 15 -27 40 -31 56 -6 29 -6 29 9 11 9 -11 16 -24 16 -29z m1087 29 c13
1 20 -3 16 -9 -4 -6 0 -8 9 -4 9 3 24 -1 35 -8 17 -13 16 -15 -17 -29 -33 -14
-36 -13 -44 5 -5 10 -13 19 -17 19 -5 0 -14 10 -20 23 -10 18 -10 20 2 11 8
-5 24 -9 36 -8z m-857 -63 c0 -22 -8 -14 -19 20 -10 29 -9 30 4 13 8 -11 15
-26 15 -33z m130 2 c0 -5 -5 -3 -10 5 -5 8 -10 20 -10 25 0 6 5 3 10 -5 5 -8
10 -19 10 -25z m712 -5 c5 0 6 -5 2 -12 -9 -14 -34 18 -33 41 0 11 4 8 11 -6
6 -13 15 -23 20 -23z m-749 10 c3 -11 1 -18 -4 -14 -5 3 -9 12 -9 20 0 20 7
17 13 -6z m903 -6 c19 -28 8 -49 -19 -38 -28 11 -34 64 -7 64 5 0 17 -11 26
-26z m-349 1 c0 -8 -4 -12 -9 -9 -5 3 -6 10 -3 15 9 13 12 11 12 -6z m515 -73
c21 -24 -58 27 -83 55 -21 24 -19 23 24 -7 26 -19 53 -40 59 -48z m-448 36
c-3 -5 6 -31 20 -57 14 -27 22 -52 18 -55 -11 -12 21 -25 38 -16 11 7 19 1 30
-22 9 -17 33 -40 58 -53 60 -32 62 -36 9 -20 -53 16 -70 24 -135 68 -54 36
-73 57 -67 74 2 7 -1 15 -7 19 -7 5 -8 2 -3 -6 5 -9 4 -11 -3 -6 -17 10 -15
33 3 40 8 3 15 14 15 24 0 10 7 19 15 19 8 0 12 -4 9 -9z m-632 -82 c5 3 8 2
7 -3 -3 -18 2 -32 17 -47 14 -15 14 -16 -1 -16 -8 0 -19 8 -22 17 -4 10 -17
28 -30 41 -29 29 -30 50 -1 23 11 -11 25 -18 30 -15z m1183 -36 c7 -24 5 -23
-29 9 -26 25 -32 37 -23 43 15 9 42 -18 52 -52z m-1935 20 c0 -5 -2 -10 -4
-10 -3 0 -8 5 -11 10 -3 6 -1 10 4 10 6 0 11 -4 11 -10z m790 -10 c6 -11 8
-20 6 -20 -3 0 -10 9 -16 20 -6 11 -8 20 -6 20 3 0 10 -9 16 -20z m-863 -17
c1 -22 -1 -24 -8 -10 -6 9 -7 22 -4 27 9 14 10 13 12 -17z m797 11 c3 -8 2
-12 -4 -9 -6 3 -10 10 -10 16 0 14 7 11 14 -7z m-1183 -117 c-8 -40 -17 1 -12
58 l5 60 6 -50 c3 -27 3 -58 1 -68z m429 78 c0 -5 -5 -3 -10 5 -5 8 -10 20
-10 25 0 6 5 3 10 -5 5 -8 10 -19 10 -25z m702 -30 c13 -20 6 -15 -21 14 -22
25 -41 47 -41 49 0 10 42 -33 62 -63z m-860 9 c-2 -14 1 -35 7 -48 14 -26 -1
-78 -21 -74 -21 5 -26 41 -10 75 14 28 13 33 -2 48 -9 10 -14 20 -11 23 3 4
10 0 15 -8 8 -12 10 -9 10 10 0 17 3 21 9 12 4 -7 6 -25 3 -38z m798 -20 c0
-9 12 -30 26 -47 15 -18 22 -33 15 -35 -13 -4 -43 23 -35 31 4 3 -1 16 -10 29
-18 26 -20 38 -6 38 6 0 10 -7 10 -16z m1698 -24 c10 0 29 -11 43 -24 43 -40
66 -48 102 -37 18 6 52 9 76 6 26 -2 59 2 80 11 44 18 61 12 55 -20 -3 -18 1
-26 16 -31 29 -9 25 -35 -6 -35 -14 0 -23 4 -20 9 3 5 -1 12 -10 15 -11 4 -15
2 -11 -8 11 -28 -34 -36 -215 -39 -53 -1 -99 -5 -103 -9 -4 -4 -14 -4 -22 -1
-28 11 5 -35 36 -52 16 -8 40 -28 55 -46 16 -19 32 -29 41 -25 8 3 15 1 15 -3
0 -5 7 -12 16 -15 14 -5 15 -4 4 9 -10 12 -9 15 6 15 11 0 26 -5 34 -10 13 -9
13 -11 0 -20 -13 -9 -13 -10 0 -10 11 0 12 -2 3 -8 -10 -6 -9 -14 3 -36 14
-28 11 -52 -4 -30 -11 17 -44 25 -57 14 -9 -7 -21 -7 -41 0 -15 6 -33 9 -40 6
-8 -3 -16 -1 -20 5 -4 6 -11 6 -20 -2 -8 -6 -14 -8 -14 -3 0 5 -7 -2 -17 -15
-16 -23 -15 -25 6 -43 13 -10 31 -18 40 -18 10 0 28 -10 41 -22 13 -13 32 -21
42 -20 18 3 19 0 23 -50 2 -27 -5 -29 -50 -13 l-20 8 20 -17 c20 -16 20 -17
-5 -14 -14 2 -24 9 -22 16 1 8 -5 12 -15 11 -10 -1 -25 0 -33 4 -62 23 -161
47 -196 47 -23 0 -73 6 -111 14 -113 23 -166 29 -159 17 7 -11 -105 25 -114
37 -3 4 -40 25 -84 47 -81 41 -160 107 -153 128 2 6 31 13 68 15 35 2 69 7 74
12 6 4 22 10 38 14 15 3 27 11 27 16 0 6 10 10 23 11 20 1 19 2 -8 15 l-30 14
40 -7 c50 -9 119 -6 165 8 67 20 64 18 46 37 -9 10 -16 23 -16 29 0 13 54 21
132 19 32 0 58 2 58 6 0 3 -16 15 -35 27 -23 14 -33 25 -29 36 3 8 8 15 11 15
14 0 64 -33 77 -52 12 -16 25 -21 60 -21 53 0 80 17 72 48 -6 22 6 45 12 26 2
-6 11 -11 20 -11z m336 14 c18 -7 23 -38 5 -32 -6 2 -10 7 -9 12 1 5 -4 13
-12 17 -15 10 -7 12 16 3z m-2953 -34 c-7 -3 -9 -15 -6 -26 6 -18 6 -18 -5 -1
-14 21 -5 52 11 41 8 -5 8 -8 0 -14z m-146 -39 c-2 -5 5 -17 16 -27 11 -10 18
-23 15 -30 -7 -19 5 -25 23 -11 9 7 7 2 -4 -15 -11 -14 -21 -22 -23 -17 -2 5
-12 4 -23 -1 -16 -9 -21 -7 -29 15 -6 15 -15 36 -21 48 -7 12 -8 19 -4 14 11
-10 46 23 38 36 -3 6 -1 7 6 3 6 -4 9 -11 6 -15z m298 -60 c2 -29 1 -47 -3
-40 -9 15 -13 61 -10 94 2 29 8 7 13 -54z m1157 15 c-1 -6 -6 -1 -13 12 -7 12
-17 19 -22 15 -4 -4 -5 -2 0 6 7 12 10 11 22 -4 7 -11 13 -24 13 -29z m-324
18 c-3 -9 -6 -18 -6 -20 0 -2 -7 -4 -15 -4 -18 0 -19 12 -3 28 17 17 31 15 24
-4z m198 -47 c1 -7 5 -18 9 -24 5 -7 4 -13 -1 -13 -5 0 -16 10 -24 23 -12 20
-14 30 -9 55 2 9 22 -25 25 -41z m828 31 c12 -7 28 -19 36 -25 20 -19 -33 -15
-83 6 l-39 16 29 6 c17 4 31 7 33 8 1 0 12 -5 24 -11z m-122 -13 c14 -16 10
-18 -14 -9 -9 3 -16 10 -16 15 0 14 16 11 30 -6z m-665 -15 c-3 -5 -1 -10 6
-10 7 0 10 -3 6 -6 -9 -9 -28 6 -22 17 4 5 8 9 11 9 3 0 2 -4 -1 -10z m725
-10 c13 -9 13 -10 0 -10 -8 0 -22 5 -30 10 -13 9 -13 10 0 10 8 0 22 -5 30
-10z m-1810 -51 c0 -18 4 -28 10 -24 6 3 10 -1 10 -9 0 -13 -4 -14 -18 -5 -11
7 -18 23 -18 45 0 18 4 30 8 28 4 -3 8 -19 8 -35z m924 10 c-3 -6 -7 -9 -8 -7
-1 2 -8 12 -16 22 -14 18 -14 19 8 7 12 -7 20 -17 16 -22z m2273 9 c-3 -8 -6
-5 -6 6 -1 11 2 17 5 13 3 -3 4 -12 1 -19z m-2828 -30 c25 -15 41 -28 36 -28
-5 0 4 -13 19 -29 16 -16 27 -33 25 -38 -2 -4 -38 25 -79 65 -77 76 -77 78 -1
30z m591 31 c0 -5 5 -7 12 -3 7 4 8 3 4 -4 -4 -6 1 -23 10 -37 17 -25 5 -36
-14 -12 -18 21 -33 67 -22 67 6 0 10 -5 10 -11z m2276 -15 c-4 -11 1 -18 14
-21 16 -4 18 -8 9 -20 -10 -11 -10 -13 1 -11 7 2 14 -2 17 -8 5 -14 -23 -44
-42 -44 -15 0 -15 31 0 42 6 5 5 8 -2 8 -21 0 -36 39 -22 56 16 19 33 18 25
-2z m-3511 -4 c3 -5 1 -10 -4 -10 -6 0 -11 5 -11 10 0 6 2 10 4 10 3 0 8 -4
11 -10z m260 -69 c-10 -16 -25 -3 -25 22 0 20 1 20 16 5 9 -9 13 -21 9 -27z
m1126 -13 c6 1 8 -2 4 -8 -3 -5 -15 -10 -25 -10 -15 0 -19 6 -18 26 2 23 3 24
16 7 7 -10 18 -17 23 -15z m2069 12 c0 -5 -5 -10 -11 -10 -5 0 -7 5 -4 10 3 6
8 10 11 10 2 0 4 -4 4 -10z m-3130 -49 c0 -5 3 -17 7 -27 4 -12 3 -15 -5 -10
-8 4 -12 0 -12 -10 0 -14 -3 -15 -12 -6 -10 10 -10 15 1 21 8 5 11 16 8 25 -4
9 -2 16 3 16 6 0 10 -4 10 -9z m1044 -3 c-5 -7 -2 -9 9 -5 11 4 14 2 10 -9 -4
-11 -9 -12 -19 -3 -12 10 -11 29 2 29 3 0 2 -5 -2 -12z m2156 8 c0 -3 -4 -8
-10 -11 -5 -3 -10 -1 -10 4 0 6 5 11 10 11 6 0 10 -2 10 -4z m-540 -10 c0 -3
-4 -8 -10 -11 -5 -3 -10 -1 -10 4 0 6 5 11 10 11 6 0 10 -2 10 -4z m-2070 -66
c84 -16 133 -36 162 -67 l23 -25 -52 27 c-29 15 -96 41 -150 56 -100 30 -97
31 17 9z m-602 -53 c3 -16 1 -17 -17 -5 -25 16 -27 31 -4 26 10 -2 19 -11 21
-21z m2813 -35 c13 -35 5 -37 -30 -11 -26 19 -29 25 -16 32 8 4 12 14 8 20 -4
7 1 5 11 -3 10 -8 22 -25 27 -38z m-2673 -8 c1 -15 8 -34 15 -43 10 -14 10
-14 -5 -3 -11 9 -17 9 -20 2 -2 -6 -4 7 -4 30 -2 44 10 56 14 14z m2592 7 c58
-26 93 -68 85 -101 -10 -38 -25 -41 -62 -12 -22 18 -31 32 -27 44 3 11 0 18
-8 18 -10 0 -10 2 -1 8 19 12 -1 33 -28 28 -13 -3 -26 -5 -29 -5 -3 -1 2 -6
10 -11 10 -7 11 -10 2 -10 -16 0 -26 25 -18 45 7 20 25 19 76 -4z m-2696 -21
c-5 12 -4 12 6 3 7 -6 14 -23 15 -37 3 -22 1 -24 -14 -16 -24 12 -53 58 -46
70 4 6 15 1 26 -12 12 -13 17 -16 13 -8z m185 -74 c-3 -3 -11 5 -18 17 -13 21
-12 21 5 5 10 -10 16 -20 13 -22z m1176 24 c3 -5 -1 -10 -10 -10 -9 0 -13 -4
-10 -10 3 -5 1 -10 -4 -10 -6 0 -11 6 -11 13 0 25 23 36 35 17z m-388 -6 c-3
-3 -12 -4 -19 -1 -8 3 -5 6 6 6 11 1 17 -2 13 -5z m115 -38 c15 -12 27 -28 27
-36 1 -9 -2 -11 -7 -5 -8 11 -37 29 -92 56 l-35 18 40 -6 c22 -3 52 -16 67
-27z m233 4 c3 -5 1 -10 -4 -10 -6 0 -11 5 -11 10 0 6 2 10 4 10 3 0 8 -4 11
-10z m-1140 -10 c3 -5 1 -10 -4 -10 -6 0 -11 5 -11 10 0 6 2 10 4 10 3 0 8 -4
11 -10z m4 -54 c-3 -3 -11 5 -18 17 -13 21 -12 21 5 5 10 -10 16 -20 13 -22z
m-7 -34 c-7 -2 -10 -7 -8 -11 3 -4 -1 -8 -9 -8 -18 0 -19 9 -3 25 6 6 16 8 22
5 6 -4 6 -8 -2 -11z m2423 8 c-3 -5 -14 -10 -23 -10 -15 0 -15 2 -2 10 20 13
33 13 25 0z m-48 -6 c-3 -3 -12 -4 -19 -1 -8 3 -5 6 6 6 11 1 17 -2 13 -5z
m-52 -23 c-3 -6 -11 -8 -17 -5 -6 4 -5 9 3 15 16 10 23 4 14 -10z m-2290 -39
c2 -24 -3 -26 -23 -14 -15 10 -5 45 11 39 6 -2 11 -13 12 -25z m170 -75 c12 4
16 3 12 -5 -4 -6 6 -20 23 -32 17 -12 28 -26 25 -31 -4 -5 -1 -9 5 -9 6 0 8
-4 5 -10 -3 -5 1 -10 9 -10 9 0 16 -7 16 -15 0 -8 5 -15 11 -15 5 0 7 5 4 10
-14 23 4 8 20 -17 l18 -27 -38 23 c-21 12 -39 21 -40 19 -2 -2 5 -20 15 -40
10 -21 14 -38 9 -38 -6 0 -7 -4 -4 -10 3 -5 4 -10 1 -10 -11 0 -29 46 -31 80
-1 20 -7 34 -13 33 -6 -2 -9 4 -6 11 4 9 -6 20 -25 30 -29 16 -59 46 -30 32 8
-4 6 -1 -4 6 -10 7 -26 18 -34 24 -9 6 -13 16 -9 23 6 9 13 6 26 -9 12 -13 24
-18 35 -13z m-50 -86 c3 -5 2 -12 -3 -15 -5 -3 -9 1 -9 9 0 17 3 19 12 6z
m-47 -77 c-10 -10 -28 6 -28 24 0 15 1 15 17 -1 9 -9 14 -19 11 -23z m91 -10
c3 -16 1 -17 -13 -5 -19 16 -21 34 -3 29 6 -3 14 -13 16 -24z m29 -159 c15
-14 22 -25 16 -25 -6 0 -21 11 -34 25 -13 14 -20 25 -16 25 4 0 19 -11 34 -25z
m152 -157 c0 -16 -20 -7 -30 12 -10 19 -10 20 9 8 12 -7 21 -16 21 -20z m497
-13 c12 -8 24 -28 28 -44 8 -37 16 -43 90 -70 123 -45 143 -59 170 -124 14
-34 21 -97 10 -97 -2 0 -23 20 -46 45 -26 28 -50 45 -64 45 -33 0 -55 10 -55
25 0 8 -10 17 -22 21 -13 3 -35 15 -49 25 -14 10 -29 16 -33 12 -3 -3 -6 -1
-6 6 0 7 -4 10 -9 6 -5 -3 -12 -1 -16 5 -3 5 1 10 9 10 24 0 -2 37 -29 44 -23
6 -48 66 -38 92 7 18 33 18 60 -1z"/>
<path d="M2020 1785 c0 -8 7 -15 15 -15 8 0 15 4 15 9 0 5 -7 11 -15 15 -9 3
-15 0 -15 -9z"/>
<path d="M2990 1179 c0 -5 5 -7 10 -4 6 3 10 8 10 11 0 2 -4 4 -10 4 -5 0 -10
-5 -10 -11z"/>
<path d="M3210 1266 c0 -2 7 -6 15 -10 8 -3 15 -1 15 4 0 6 -7 10 -15 10 -8 0
-15 -2 -15 -4z"/>
<path d="M3210 1149 c0 -5 5 -7 10 -4 6 3 10 8 10 11 0 2 -4 4 -10 4 -5 0 -10
-5 -10 -11z"/>
<path d="M1490 365 c0 -2 15 -12 33 -20 l32 -16 -24 21 c-22 19 -41 26 -41 15z"/>
<path d="M1335 3876 c-84 -31 -135 -57 -135 -67 0 -5 5 -9 10 -9 7 0 7 -7 0
-21 -12 -22 -3 -90 9 -70 4 6 17 13 29 16 18 3 22 -2 28 -31 4 -24 11 -34 20
-30 19 7 18 -2 -2 -22 -11 -10 -13 -17 -5 -20 6 -2 11 -11 11 -20 0 -12 -3
-13 -12 -4 -16 16 -25 15 -32 -4 -3 -8 1 -25 9 -38 12 -18 23 -22 49 -20 23 3
38 -2 50 -15 20 -22 69 -20 116 4 27 14 28 16 24 85 -2 38 -11 86 -19 106 -8
20 -15 47 -15 60 0 28 -12 31 -31 7 -11 -13 -11 -17 -1 -20 6 -3 12 -12 12
-20 0 -12 -3 -13 -14 -4 -10 9 -15 8 -20 -4 -3 -8 -12 -15 -21 -15 -22 0 -19
42 5 63 11 9 20 22 21 29 8 102 10 101 -86 64z m149 -257 c-6 -11 -24 -2 -24
11 0 5 7 7 15 4 8 -4 12 -10 9 -15z"/>
<path d="M1140 3789 c0 -5 5 -7 10 -4 6 3 10 8 10 11 0 2 -4 4 -10 4 -5 0 -10
-5 -10 -11z"/>
<path d="M1010 3727 c-137 -79 -135 -77 -100 -135 25 -40 25 -50 3 -30 -30 26
-61 31 -79 13 -9 -9 -23 -14 -30 -11 -18 7 -45 -4 -39 -14 3 -5 1 -11 -5 -15
-5 -3 -10 -1 -10 5 0 7 -23 -7 -50 -30 l-50 -42 21 -19 c12 -11 41 -24 63 -31
37 -11 38 -12 14 -16 -14 -2 -51 3 -82 11 l-56 15 -77 -82 c-43 -46 -93 -104
-112 -130 l-34 -48 53 38 52 37 154 1 c124 0 150 2 132 12 -13 6 -43 14 -67
18 -51 8 -81 22 -81 38 0 6 3 9 6 5 3 -3 16 -2 29 3 16 6 33 3 59 -11 20 -10
43 -19 52 -19 17 0 105 48 116 65 4 5 8 38 8 73 0 36 4 61 9 58 5 -4 12 6 15
21 6 23 17 32 72 53 35 13 72 32 81 42 8 10 20 15 24 12 15 -9 58 30 59 52 0
24 -28 85 -44 96 -18 13 -28 9 -106 -35z m-193 -333 c-3 -3 -12 -4 -19 -1 -8
3 -5 6 6 6 11 1 17 -2 13 -5z"/>
<path d="M1928 3445 c-6 -14 -8 -28 -4 -32 11 -12 41 12 44 36 5 30 -26 27
-40 -4z"/>
<path d="M1506 3395 c-11 -6 -25 -25 -30 -43 -5 -17 -13 -32 -17 -32 -5 0 -9
-13 -9 -29 0 -22 -6 -30 -24 -35 -26 -6 -42 -38 -51 -107 -12 -90 44 -88 107
3 22 33 55 69 74 80 33 19 38 30 36 73 0 14 3 11 13 -11 22 -49 37 -55 61 -25
20 24 20 29 7 74 -13 46 -28 56 -75 48 -5 0 -8 3 -8 8 0 12 -58 9 -84 -4z"/>
<path d="M565 3206 c-27 -7 -57 -16 -67 -22 -36 -20 -88 -76 -88 -94 0 -39 26
-33 90 20 56 46 125 73 167 65 36 -6 45 8 16 23 -34 18 -68 20 -118 8z"/>
<path d="M1375 3030 c-10 -11 -15 -20 -10 -20 4 0 3 -6 -2 -12 -13 -17 -25
-68 -17 -68 4 0 19 13 33 29 14 15 36 33 49 40 12 6 22 21 22 31 0 27 -51 27
-75 0z"/>
<path d="M646 3002 c-17 -2 -30 -11 -33 -22 -3 -10 -23 -31 -44 -46 -21 -15
-39 -33 -39 -41 0 -8 -4 -12 -9 -9 -9 6 -14 -8 -30 -70 -7 -28 -3 -38 36 -88
37 -46 47 -54 61 -45 14 9 17 29 19 100 2 90 10 117 45 154 11 11 19 25 19 30
0 6 7 17 15 26 15 17 14 17 -40 11z"/>
<path d="M1431 2893 c-11 -30 -9 -228 4 -298 6 -33 5 -38 -6 -27 -17 16 -29
15 -29 -3 0 -14 12 -20 33 -16 4 1 7 -4 6 -11 -3 -18 11 -49 32 -72 18 -18 18
-18 23 5 15 76 15 88 1 82 -20 -7 -20 23 -1 34 12 7 13 26 4 125 -7 82 -7 127
0 148 10 28 10 29 -8 20 -16 -9 -18 -8 -13 6 4 12 3 15 -5 10 -7 -4 -12 -1
-12 8 0 25 -17 18 -29 -11z"/>
<path d="M460 2778 c0 -3 7 -19 15 -34 8 -16 15 -22 15 -14 -1 8 -7 24 -15 34
-8 11 -15 17 -15 14z"/>
<path d="M387 2704 c3 -8 1 -14 -4 -14 -5 0 -9 -9 -9 -20 0 -25 13 -26 19 -2
4 16 5 16 6 0 1 -21 12 -23 29 -6 16 16 15 48 0 49 -7 0 -21 2 -30 4 -11 2
-15 -2 -11 -11z"/>
<path d="M3370 2594 c0 -8 5 -12 10 -9 6 4 8 11 5 16 -9 14 -15 11 -15 -7z"/>
<path d="M300 2580 c0 -5 5 -10 11 -10 5 0 7 5 4 10 -3 6 -8 10 -11 10 -2 0
-4 -4 -4 -10z"/>
<path d="M3265 2500 c3 -5 8 -10 11 -10 2 0 4 5 4 10 0 6 -5 10 -11 10 -5 0
-7 -4 -4 -10z"/>
<path d="M1658 2421 c-4 -28 -3 -30 10 -18 10 11 11 20 4 32 -8 15 -10 13 -14
-14z"/>
<path d="M1500 2422 c0 -28 15 -58 44 -86 12 -12 45 -67 74 -123 35 -69 68
-117 100 -147 26 -24 48 -43 50 -41 2 2 -14 27 -35 57 -22 29 -74 112 -117
183 -42 72 -85 141 -96 155 l-20 25 0 -23z"/>
<path d="M1510 2330 c6 -11 13 -20 16 -20 2 0 0 9 -6 20 -6 11 -13 20 -16 20
-2 0 0 -9 6 -20z"/>
<path d="M1700 2252 c0 -5 7 -13 16 -16 10 -4 14 -1 12 6 -5 15 -28 23 -28 10z"/>
<path d="M3245 2250 c3 -5 14 -10 23 -10 15 0 15 2 2 10 -20 13 -33 13 -25 0z"/>
<path d="M3952 2241 c-20 -12 -31 -66 -25 -128 4 -48 9 -59 24 -60 31 -3 36
18 28 105 -4 46 -9 85 -11 87 -2 2 -9 0 -16 -4z"/>
<path d="M291 1684 c0 -11 3 -14 6 -6 3 7 2 16 -1 19 -3 4 -6 -2 -5 -13z"/>
</g>
</svg>
